<svg xmlns="http://www.w3.org/2000/svg" xmlns:xlink="http://www.w3.org/1999/xlink" version="1.1" x="0px" y="0px" viewBox="0 0 800 1000" style="enable-background:new 0 0 800 800;" xml:space="preserve"><g><path d="M560.58,566.38l-9.39-4.01l-7.86,18.39l15.46,6.61l3.16-0.71c11.41-2.57,50.05-13.91,68.1-52.08   c15.9-33.62,9.52-57.5,1.38-71.6c-13.21-22.86-36.45-30.56-45.83-32.81l-1.15-0.28h-14.35v20h11.93   c7.44,1.95,23.21,7.75,32.08,23.09c8.37,14.5,7.66,32.35-2.14,53.05C599,553.43,571.12,563.48,560.58,566.38z"/><rect x="292.93" y="662" width="162.4" height="20"/><path d="M303.96,644.07l1.76,0.69h130.49l1.75-0.68c34.4-13.41,63.77-36.57,84.94-66.98c21.67-31.13,33.13-67.71,33.13-105.77   v-80.15l-370.74,0v78c0,38.44,11.52,75.45,33.33,107.01C239.94,607.05,269.45,630.52,303.96,644.07z M205.3,411.17h330.74v60.15   c0,68.06-40.61,128.09-103.61,153.44H309.54c-62.43-25.35-104.24-87.63-104.24-155.59V411.17z"/><path d="M347.76,281.51c15.51-10.9,33.09-23.26,35.61-44.09c2.65-21.86-11.87-44.12-44.38-68.07l-11.86,16.1   c25.46,18.76,38.04,35.89,36.38,49.56c-1.45,11.99-13.99,20.8-27.26,30.13c-15.27,10.74-32.58,22.91-34.23,43.12   c-1.71,20.95,13.84,41.77,47.54,63.63l10.88-16.78c-26.2-17-39.51-32.64-38.49-45.23C322.85,299.03,334.95,290.52,347.76,281.51z"/><path d="M458.08,138.27l-11.25-16.54c-21.99,14.96-34.36,32.08-36.78,50.89c-2.24,17.47,4.92,30.61,11.24,42.21   c5.35,9.82,9.97,18.3,9.75,29.09c-0.35,17.13-13.43,35.15-38.88,53.55l11.72,16.21c30.8-22.28,46.67-45.61,47.15-69.35   c0.33-16.11-6.32-28.31-12.18-39.07c-5.57-10.22-10.38-19.05-8.96-30.09C431.54,162.28,441.03,149.86,458.08,138.27z"/></g></svg>