<svg xmlns="http://www.w3.org/2000/svg" version="1.1" viewBox="-5.0 -10.0 110.0 135.0">
 <path d="m58.414 0.078125 34.816 4.4297c1.6094 0.20313 3.0664 1.082 4.0977 2.4414 0.94531 1.25 1.5312 2.8984 1.5312 4.793v76.516c0 1.8945-0.58594 3.5469-1.5312 4.793-1.0273 1.3594-2.4883 2.2383-4.0977 2.4414l-34.816 4.4297c-0.42578 0.054687-0.80859 0.078125-1.1562 0.078125-2.3633 0-4.1055-0.96875-5.3047-2.3438-1.1602-1.3203-1.793-3.0195-1.9883-4.5508-0.046875-0.375-0.070313-0.72266-0.070313-1.0312v-84.148c0-0.30859 0.023438-0.65625 0.070313-1.0352 0.19531-1.5273 0.82812-3.2266 1.9883-4.5508 1.1992-1.3711 2.9414-2.3438 5.3047-2.3438 0.34766 0 0.73047 0.023437 1.1562 0.078125zm-56.699 58.312c-0.31641 0-0.57422-0.25781-0.57422-0.57422s0.25781-0.57422 0.57422-0.57422h16.559c0.58203 0 1.1133 0.23828 1.4961 0.62109 0.38281 0.38281 0.62109 0.91406 0.62109 1.4961v6.9102c0 0.19141 0.046875 0.36719 0.13672 0.50781 0.085937 0.14453 0.21875 0.26562 0.38672 0.35547 0.16797 0.085938 0.34766 0.125 0.51563 0.11328 0.16797-0.011719 0.33594-0.074219 0.49219-0.17969l23.125-16.273c0.13672-0.09375 0.24219-0.21094 0.30859-0.34375 0.066406-0.13281 0.10547-0.28516 0.10547-0.45312 0-0.16406-0.035157-0.31641-0.10547-0.44922-0.070313-0.13281-0.17578-0.25-0.30859-0.34375l-23.125-16.273c-0.15625-0.10547-0.32422-0.16797-0.49219-0.17969-0.17188-0.011719-0.34766 0.023438-0.51563 0.11328-0.16797 0.089844-0.30078 0.21094-0.38672 0.35547-0.085938 0.14453-0.13672 0.31641-0.13672 0.50781v6.9102c0 0.58203-0.23828 1.1133-0.62109 1.4961-0.38281 0.38281-0.91406 0.62109-1.4961 0.62109h-16.559c-0.31641 0-0.57422-0.25781-0.57422-0.57422 0-0.31641 0.25781-0.57422 0.57422-0.57422h16.559c0.26562 0 0.50781-0.10547 0.6875-0.28516 0.17578-0.17578 0.28516-0.41797 0.28516-0.6875v-6.9102c0-0.39844 0.10547-0.77344 0.30469-1.0977 0.19531-0.32422 0.48047-0.59375 0.83594-0.77734h0.003906c0.35547-0.1875 0.73828-0.26562 1.1172-0.23828 0.375 0.023437 0.74609 0.15625 1.0742 0.38672l23.125 16.27c0.28906 0.20312 0.51562 0.45703 0.66797 0.75391 0.15625 0.29688 0.23438 0.62891 0.23438 0.97656 0 0.35547-0.078125 0.68359-0.23438 0.97656-0.15625 0.29688-0.37891 0.55078-0.66797 0.75391l-23.125 16.27c-0.32812 0.23438-0.69922 0.36328-1.0742 0.38672-0.375 0.023438-0.75781-0.054687-1.1172-0.23828-0.35547-0.1875-0.64062-0.45312-0.83984-0.77734-0.19531-0.32422-0.30469-0.69922-0.30469-1.0977v-6.9102c0-0.26562-0.10938-0.50781-0.28516-0.6875-0.17578-0.17578-0.41797-0.28516-0.6875-0.28516h-16.559zm22.859-31.406c0 0.63281-0.51172 1.1445-1.1445 1.1445-0.63281 0-1.1445-0.51172-1.1445-1.1445v-14.227c0-2.2539 0.90625-4.3086 2.375-5.8008 1.4688-1.4961 3.4922-2.4219 5.7227-2.4219h14.734c0.37891 0 0.74219 0.074219 1.0781 0.22656 0.32813 0.14453 0.62891 0.35938 0.88672 0.64844 0.26172 0.28516 0.44922 0.60156 0.56641 0.94141l0.023437 0.070313c0.097656 0.32422 0.13672 0.66406 0.10156 1.0195h0.003906l-0.019532 0.24609c-0.003906 0.027344-0.003906 0.10547-0.003906 0.23828v4.5156c0 0.73438-0.29688 1.4023-0.78125 1.8867-0.48438 0.48047-1.1523 0.78125-1.8867 0.78125h-11.785c-0.085937 0-0.16016 0.035156-0.21484 0.09375-0.058594 0.058594-0.097657 0.14844-0.097657 0.24609v16.172c0 0.63281-0.51172 1.1445-1.1445 1.1445s-1.1445-0.51172-1.1445-1.1445v-16.172c0-0.71875 0.28906-1.3711 0.75781-1.8516 0.47266-0.48047 1.125-0.78125 1.8438-0.78125h11.785c0.10547 0 0.19531-0.042968 0.26562-0.10938 0.066407-0.070312 0.11328-0.16406 0.11328-0.26562v-4.5156c0-0.058593 0.003906-0.17578 0.011718-0.33594 0.003907-0.16797 0.015626-0.28516 0.019532-0.34766h0.003906c0.003906-0.050782 0.003906-0.097657-0.007812-0.14063l-0.007813-0.019531c-0.015625-0.050781-0.042969-0.09375-0.082031-0.13672-0.035156-0.039062-0.078125-0.070312-0.125-0.09375-0.042969-0.015624-0.09375-0.023437-0.15625-0.023437h-14.734c-1.5938 0-3.0469 0.66406-4.0938 1.7344-1.0586 1.0742-1.7109 2.5625-1.7109 4.1992v14.227zm6.1211 41.391c0-0.63281 0.51172-1.1445 1.1445-1.1445 0.63281 0 1.1445 0.51172 1.1445 1.1445v16.172c0 0.10156 0.039063 0.1875 0.097656 0.25 0.054688 0.054687 0.13281 0.089844 0.21484 0.089844h11.785c0.73438 0 1.4023 0.30078 1.8867 0.78516 0.48438 0.48047 0.78125 1.1484 0.78125 1.8867v4.5156c0 0.12891 0 0.20703 0.003906 0.23438l0.019532 0.24609c0.003906 0.042968 0.003906 0.085937 0.003906 0.125 0.015625 0.33594-0.027344 0.65625-0.13281 0.96094v0.003906c-0.11719 0.33984-0.30469 0.65625-0.56641 0.94141-0.26172 0.28516-0.55859 0.50391-0.88672 0.64844-0.33594 0.14844-0.69922 0.22656-1.0781 0.22656h-14.734c-2.2266 0-4.2539-0.92969-5.7227-2.4219-1.4648-1.4922-2.375-3.5469-2.375-5.8008v-14.227c0-0.63281 0.51172-1.1445 1.1445-1.1445 0.63281 0 1.1445 0.51172 1.1445 1.1445v14.227c0 1.6367 0.65625 3.125 1.7109 4.1992 1.0508 1.0703 2.5 1.7344 4.0938 1.7344h14.734c0.066406 0 0.11719-0.007813 0.15625-0.023437 0.046875-0.019532 0.089844-0.054688 0.125-0.09375 0.039063-0.042969 0.066406-0.085938 0.082031-0.13672h0.003906c0.007813-0.03125 0.015626-0.066407 0.015626-0.10156l-0.003907-0.058594c-0.003906-0.0625-0.015625-0.17578-0.019531-0.34766-0.007812-0.16406-0.011719-0.27734-0.011719-0.33594v-4.5156c0-0.10547-0.046875-0.19922-0.11328-0.26953-0.070312-0.066406-0.16406-0.10937-0.26562-0.10937h-11.785c-0.71875 0-1.3711-0.30078-1.8438-0.78125-0.46875-0.47656-0.75781-1.1328-0.75781-1.8516v-16.172zm62.25-61.605-34.816-4.4297c-0.27734-0.035156-0.57031-0.050782-0.86719-0.050782-1.6211 0-2.793 0.64453-3.5898 1.5508-0.83984 0.95703-1.2969 2.2031-1.4414 3.3359-0.03125 0.23438-0.046875 0.48828-0.046875 0.74609v84.148c0 0.25781 0.015625 0.51172 0.046875 0.74609 0.14453 1.1289 0.60156 2.3789 1.4414 3.3359 0.79688 0.90625 1.9727 1.5547 3.5898 1.5547 0.29688 0 0.58984-0.019531 0.86719-0.054687l34.816-4.4258c0.98828-0.125 1.8984-0.6875 2.5586-1.5586 0.65625-0.86719 1.0625-2.043 1.0625-3.418v-76.516c0-1.3711-0.40625-2.5469-1.0625-3.418-0.66016-0.87109-1.5703-1.4297-2.5586-1.5547zm-29.578 37.938c1.4609 0 2.7852 0.59375 3.7383 1.5508 0.95703 0.95703 1.5508 2.2812 1.5508 3.7422s-0.58984 2.7812-1.5508 3.7383c-0.95703 0.95703-2.2812 1.5508-3.7383 1.5508-1.4609 0-2.7852-0.59375-3.7422-1.5508s-1.5508-2.2812-1.5508-3.7383c0-1.4609 0.59375-2.7852 1.5508-3.7422 0.95703-0.95703 2.2812-1.5508 3.7422-1.5508zm2.1211 3.168c-0.54297-0.54297-1.293-0.87891-2.1211-0.87891-0.82813 0-1.582 0.33594-2.1211 0.87891-0.54297 0.54297-0.87891 1.293-0.87891 2.1211s0.33594 1.5781 0.87891 2.1211c0.54297 0.54297 1.293 0.87891 2.1211 0.87891 0.82812 0 1.5781-0.33594 2.1211-0.87891 0.54297-0.54297 0.87891-1.293 0.87891-2.1211s-0.33594-1.582-0.87891-2.1211z"/>
</svg>