<svg xmlns="http://www.w3.org/2000/svg" version="1.1" viewBox="-5.0 -10.0 110.0 135.0">
 <path d="m93.59 35.07c-0.58984-3.5117-1.8008-6.8203-3.5898-9.8398-0.69141-1.1602-1.6484-2.0781-2.7695-2.7109 0.96875-3.8008 1.8516-7.7812 2.6406-11.93 0.10938-0.58984-0.28125-1.1602-0.85938-1.2695-0.58984-0.10937-1.1602 0.28125-1.2695 0.85938-0.76172 4.0312-1.6094 7.8789-2.5391 11.559-1.1992-0.26953-2.4883-0.23828-3.7305 0.12109-2.7109 0.78906-5.2617 2.2305-7.5781 4.2617-1.8281 1.6094-3.5312 3.5898-5.0312 5.8984-2.5508 3.8984-3.6719 7.3594-3.7188 7.5117-0.16016 0.51172 0.070313 1.0703 0.55078 1.3086 0.83984 0.41016 2.6602 1.0703 4.1602 1.6016-0.98047 0.30859-2.2109 0.51953-3.6406 0.62891-2.1914 0.16016-4.1016 0.019532-4.1211 0.019532-0.32031-0.03125-0.64062 0.089844-0.85938 0.32812l-8.1484 8.3984c-0.23828 0.23828-0.35156 0.58984-0.28906 0.92188 0.39062 2.4805 1.9102 4.7812 3.2305 6.3906-2.8008-0.62109-5.7305-1.8906-5.7695-1.9102-0.48828-0.21875-1.0703-0.039062-1.3516 0.41016-0.011719 0.019532-1.1484 1.7617-4.0117 3.3008-0.53125 0.28125-0.73047 0.94141-0.44141 1.4688 0.19922 0.35937 0.57031 0.57031 0.96094 0.57031 0.17188 0 0.35156-0.039062 0.51172-0.12891 2.2109-1.1914 3.5586-2.5117 4.25-3.3086 1.6602 0.66016 5.5703 2.1016 8.4297 2.1016h0.28906c0.44141-0.019531 0.82812-0.30078 0.98047-0.71875 0.14844-0.42187 0.03125-0.89062-0.30078-1.1797-0.039063-0.03125-3.6797-3.2812-4.5195-6.8086l7.4102-7.6289c0.75 0.039063 2.2383 0.078125 3.9102-0.050781 3.3086-0.23828 5.6484-1 6.9492-2.2383 0.28125-0.26172 0.39062-0.64844 0.30859-1.0195-0.078124-0.37109-0.35937-0.67188-0.71875-0.78906-1.0898-0.35938-3.7617-1.2695-5.3398-1.8984 0.48828-1.25 1.5195-3.6016 3.1602-6.1094 1.3984-2.1289 2.9609-3.9492 4.6406-5.4219 2.0703-1.8086 4.3398-3.0898 6.7305-3.7891 0.85938-0.25 1.7383-0.28125 2.5781-0.10156-3.8008 14.25-8.8906 25.68-15.191 34.109-6.7188 8.9883-13.352 12.602-17.309 14.75-0.23047 0.12109-0.44922 0.23828-0.66016 0.35938-0.53125 0.28906-0.71875 0.94922-0.42969 1.4688 0.19922 0.35938 0.57031 0.55859 0.94922 0.55859 0.17969 0 0.35938-0.039062 0.51953-0.12891 0.21094-0.10938 0.42969-0.23047 0.64844-0.35156 4.1211-2.2383 11.012-5.9805 18.02-15.359 3.8516-5.1484 7.2812-11.43 10.219-18.672 1.9492-4.8086 3.6992-10.109 5.2383-15.852 0.58984 0.42188 1.0898 0.96094 1.4805 1.6094 1.6484 2.7891 2.7695 5.8594 3.3203 9.1016 0.69922 4.1094 0.44141 8.3984-0.75 12.77-0.92188-0.67188-2.2617-2.0195-3.0508-4.5391-0.17969-0.57031-0.78906-0.89062-1.3594-0.71094-0.57031 0.17969-0.89062 0.78906-0.71094 1.3594 1.6211 5.1406 5.2617 6.4609 5.4219 6.5195 0.28125 0.10156 0.57813 0.078125 0.83984-0.058594 0.26172-0.12891 0.46094-0.35938 0.55078-0.64062 1.6211-5.1406 2.0195-10.211 1.1992-15.07z"/>
 <path d="m89.031 55.449c-0.55859-0.21094-1.1914 0.078125-1.3906 0.64844-0.039063 0.12109-4.1484 11.32-6.9492 15.262-2.0312-0.80078-5.7812-2.5898-7.0508-4.6016-0.21875-0.35156-0.62891-0.55078-1.0391-0.5-0.41016 0.050782-0.76172 0.32813-0.89844 0.71875-0.03125 0.078126-0.64062 1.8711-0.64844 4.1211-0.011719 2.5781 0.76172 4.7188 2.25 6.2812-1.7305 1.4297-5.8789 4.5781-11.781 7.1484-4.6289-0.96094-8.6211-2.9492-11.852-5.9297-2.6094-2.4102-4.75-5.4688-6.3594-9.0898-2.7617-6.25-2.9805-12.078-2.9805-12.129-0.011719-0.35938-0.19922-0.69141-0.5-0.87891-0.30078-0.19141-0.67969-0.21875-1.0195-0.078125-2.1211 0.92969-3.8789 3.0117-5.1289 4.8984 0.73828-5.1992 3.7891-10.922 3.8203-10.988 0.10156-0.19141 0.14844-0.39844 0.12109-0.62109-0.011719-0.14063-0.35156-3.4688-2.5586-6.7383-2.0508-3.0391-6.1484-6.5898-14.012-6.25-5.2109 0.23047-9.4688 3.2695-12.32 8.7891-2.1016 4.0508-2.6914 7.9883-2.7188 8.1602 0 0.039063 0 0.070313-0.011719 0.10938-0.019531 0.44922 0.17969 1.4297 1.7812 2.8906 1.4414 1.3203 2.5117 2.6289 3.2617 3.6992-1.9688-0.35156-3.6719-0.19141-3.7695-0.17969-0.53906 0.050782-0.96094 0.48828-0.98047 1.0391 0 0.19141-0.16016 4.6289 1.9805 10.051 1.2617 3.1797 3.0508 6.0391 5.3281 8.4883 2.8398 3.0586 6.4414 5.4883 10.699 7.2305 6.0781 2.4805 12.301 3.7305 18.512 3.7305 0.64844 0 1.2891-0.011719 1.9414-0.039063 5.4805-0.23047 10.961-1.4297 16.281-3.5781 9.0508-3.6484 14.441-8.6992 14.672-8.9102 0.23047-0.21875 0.35937-0.53125 0.33984-0.85156-0.019531-0.32031-0.17969-0.62109-0.44141-0.80859-1.5781-1.1602-2.3789-2.9609-2.3789-5.3516 0-0.55078 0.039062-1.0703 0.10938-1.5312 2.7617 2.4219 7.1484 3.9609 7.3789 4.0391 0.42188 0.14844 0.89062 0.019531 1.1797-0.32031 3.0391-3.5391 7.6016-15.988 7.8008-16.52 0.21094-0.55859-0.078125-1.1914-0.64844-1.3906zm-44.43 33.051h-0.28125c-0.10937-0.12891-0.26172-0.23828-0.42969-0.30859-4.7109-1.8594-8.8086-4.7305-12.18-8.5508-2.8281-3.1992-5.1602-7.0586-6.9102-11.461-3.0781-7.7305-3.6406-15.301-3.2695-18.262 0.070312-0.58984-0.35156-1.1406-0.94141-1.2109-0.58984-0.070312-1.1406 0.35156-1.2109 0.94141-0.23047 1.8398-0.10938 4.7383 0.32812 7.7617 0.39844 2.7383 1.25 6.9805 3.0781 11.57 1.8516 4.6406 4.3008 8.7109 7.3008 12.102 2.6289 2.9805 5.6797 5.4219 9.1016 7.2891-4.7188-0.39062-9.4297-1.5312-14.059-3.4219-3.9492-1.6094-7.2695-3.8516-9.8906-6.6602-2.0898-2.2383-3.7383-4.8594-4.9102-7.7695-1.4219-3.5508-1.7617-6.6914-1.8398-8.2383 1.1211 0 2.9609 0.14844 4.4609 0.89844 0.41016 0.19922 0.89844 0.12891 1.2305-0.17969 0.32812-0.32031 0.42969-0.80078 0.23828-1.2188-0.058594-0.14062-1.5312-3.4219-5.1602-6.7383-0.73828-0.67188-0.98047-1.1094-1.0586-1.2695 0.14062-0.80859 0.80078-4.0781 2.4883-7.3281 2.5117-4.8281 6.0312-7.3711 10.461-7.5703 5.4688-0.23828 9.5312 1.5195 12.07 5.2305 1.5703 2.2891 2.0703 4.6797 2.2109 5.5117-0.91016 1.7695-5.0391 10.238-3.8594 16.102 0.089844 0.46875 0.48047 0.82031 0.94922 0.87109 0.46875 0.050781 0.92188-0.21875 1.1094-0.66016 0.019532-0.050782 1.9297-4.4805 4.6797-6.6719 0.26953 2.3086 1 6.5391 2.9883 11.07 1.7188 3.9219 4.0312 7.2305 6.8711 9.8516 2.8086 2.6016 6.1406 4.5117 9.9297 5.7109-4.4297 1.5586-8.9609 2.4414-13.488 2.6211z"/>
</svg>