<svg xmlns="http://www.w3.org/2000/svg" version="1.1" viewBox="-5.0 -10.0 110.0 135.0">
 <path d="m40 34c-0.015625-4.8008 2.8633-9.1406 7.293-10.992 4.4297-1.8516 9.5391-0.85156 12.945 2.5352 3.4062 3.3828 4.4375 8.4883 2.6094 12.93-1.8242 4.4414-6.1445 7.3438-10.949 7.3555-0.66797 0-1.3398-0.0625-2-0.17969-0.30078 0.015624-0.59766-0.10938-0.79688-0.33594-0.20312-0.22656-0.28906-0.53516-0.23437-0.83594 0.050781-0.30078 0.23828-0.55859 0.50781-0.70312 0.26562-0.14453 0.58594-0.16016 0.86328-0.042969 0.5625 0.097656 1.1328 0.14844 1.7031 0.14844 4.9336 0.007813 9.125-3.6211 9.8281-8.5078 0.70312-4.8867-2.293-9.5469-7.0312-10.934s-9.7773 0.92188-11.82 5.418c-2.043 4.4961-0.46875 9.8086 3.6914 12.465 0.3125 0.32813 0.36328 0.82031 0.12891 1.207-0.23047 0.38672-0.69531 0.56641-1.1289 0.44141-3.4609-2.1367-5.5781-5.9023-5.6094-9.9688zm11.879-17c0.26562 0 0.51953-0.10547 0.70703-0.29297s0.29297-0.44141 0.29297-0.70703v-6.6914c0.070313-0.29688-0.003906-0.60547-0.19141-0.84375-0.19141-0.23828-0.47656-0.37891-0.78125-0.37891s-0.59375 0.14062-0.78125 0.37891c-0.19141 0.23828-0.26172 0.54688-0.19531 0.84375v6.6914c0.03125 0.52344 0.46484 0.9375 0.99219 0.94141zm0 42.66c0.26562 0 0.51953-0.10547 0.70703-0.29297s0.29297-0.44141 0.29297-0.70703v-6.7891c0.070313-0.29688-0.003906-0.60938-0.19141-0.84766-0.19141-0.23828-0.47656-0.375-0.78125-0.375s-0.59375 0.13672-0.78125 0.375c-0.19141 0.23828-0.26172 0.55078-0.19531 0.84766v6.75c0.011718 0.53906 0.44922 0.97266 0.99219 0.98047zm17.121-25.66c0 0.26562 0.10547 0.51953 0.29297 0.70703s0.44141 0.29297 0.70703 0.29297h6.6602c0.45312-0.10547 0.77734-0.50781 0.77734-0.97656 0-0.46484-0.32422-0.87109-0.77734-0.97266h-6.7383c-0.50391 0.039063-0.89844 0.44531-0.92188 0.94922zm-41.68 1h6.6797c0.55078 0 1-0.44922 1-1s-0.44922-1-1-1h-6.7305c-0.29688-0.066406-0.60938 0.003906-0.84375 0.19141-0.23828 0.19141-0.37891 0.48047-0.37891 0.78516 0 0.30078 0.14062 0.58984 0.37891 0.78125 0.23438 0.1875 0.54688 0.26172 0.84375 0.19141zm37.328-12.789c0.25781-0.003907 0.50781-0.10156 0.69141-0.28125l4.7109-4.7109c0.25-0.39453 0.19141-0.91016-0.13672-1.2422-0.33203-0.32812-0.84766-0.38672-1.2422-0.13672l-4.6719 4.7109c-0.36719 0.38672-0.36719 0.99219 0 1.3789 0.17578 0.16797 0.40625 0.26953 0.64844 0.28125zm-26.078 23.719-4.7695 4.7812c-0.25781 0.16016-0.42578 0.43359-0.46094 0.73437-0.03125 0.30078 0.074218 0.60156 0.28906 0.81641 0.21484 0.21484 0.51562 0.32031 0.81641 0.28516 0.30078-0.03125 0.57031-0.19922 0.73438-0.45703l4.8203-4.7812c0.36719-0.38672 0.36719-0.99219 0-1.3789-0.1875-0.19141-0.44531-0.30078-0.71484-0.30078-0.26953 0-0.52734 0.10938-0.71484 0.30078zm30.789 6.4492c0.38672-0.019531 0.72656-0.25781 0.875-0.61719 0.14453-0.35547 0.074219-0.76562-0.18359-1.0508l-4.7109-4.7109c-0.39453-0.21094-0.87891-0.13672-1.1914 0.18359-0.3125 0.32031-0.37109 0.80859-0.14844 1.1953l4.7109 4.7109c0.17187 0.17188 0.40234 0.27734 0.64844 0.28906zm-30.789-30.379c0.18359 0.18359 0.42969 0.28516 0.69141 0.28906 0.27344 0.011719 0.54297-0.09375 0.73828-0.28906 0.36719-0.38672 0.36719-0.99219 0-1.3789l-4.7812-4.7812c-0.16016-0.25781-0.42969-0.42578-0.73438-0.45703-0.30078-0.035156-0.60156 0.070313-0.81641 0.28516-0.21484 0.21484-0.32031 0.51562-0.28516 0.81641 0.03125 0.30469 0.19922 0.57422 0.45703 0.73438zm52.43 51.371c0.007812 1.875-0.87891 3.6406-2.3906 4.75l-12.109 9c-3.582 2.6328-7.9102 4.0625-12.359 4.0781h-23.301c-2.8672 0.007812-5.7031-0.58594-8.3281-1.7383l-7.75-3.4609v2.6406c0 1.6562-1.3438 3-3 3h-9.7617c-1.6562 0-3-1.3438-3-3v-27.402c0-1.6562 1.3438-3 3-3h9.7812c1.6562 0 3 1.3438 3 3v2.6797l3.7188-1.5508v0.003906c1.5664-0.66016 3.25-1 4.9492-1h2c2.4883-0.003906 4.918 0.71875 7 2.0781l2.7617 1.8008c0.52734 0.34375 1.0859 0.63281 1.668 0.87109 0.39453 0.21094 0.60156 0.65625 0.50781 1.0938-0.097657 0.4375-0.46875 0.75781-0.91797 0.78516-0.11719 0.003906-0.23828-0.023438-0.34766-0.070312-0.70312-0.28125-1.3711-0.63672-2-1.0586l-2.793-1.7695c-1.7617-1.1602-3.8281-1.7773-5.9375-1.7734h-2c-1.4414 0-2.8711 0.28516-4.1992 0.84375l-4.4297 1.8281v17.898l8.5312 3.7305h-0.003907c2.3789 1.0469 4.9531 1.5859 7.5508 1.582h23.309c4.0352-0.011719 7.957-1.3086 11.203-3.6992l12.109-9c1.4336-1.1758 1.8711-3.1797 1.0625-4.8438-0.80859-1.668-2.6562-2.5586-4.4648-2.1562-0.47266 0.023437-0.89844-0.28125-1.0195-0.73828-0.125-0.45703 0.089844-0.9375 0.51172-1.1523 1.7812-0.48438 3.6875-0.10156 5.1484 1.0273 1.4648 1.1289 2.3164 2.875 2.3008 4.7227zm-68.191-12.133c0-0.26172-0.10547-0.51953-0.29297-0.70703s-0.44141-0.29297-0.70703-0.29297h-9.8086c-0.55078 0-1 0.44922-1 1v27.434c0 0.26172 0.10547 0.51953 0.29297 0.70703s0.44141 0.29297 0.70703 0.29297h9.7812c0.26562 0 0.51953-0.10547 0.70703-0.29297s0.29297-0.44531 0.29297-0.70703zm45.121 15.82c0.83984-1.0938 1.3008-2.4375 1.3086-3.8203 0.003907-1.6523-0.65234-3.2422-1.8242-4.4141-1.168-1.1719-2.7578-1.8281-4.4141-1.8242h-12c-0.52734 0.03125-0.94141 0.46875-0.94141 1 0 0.26562 0.10547 0.51953 0.29297 0.70703s0.44141 0.29297 0.70703 0.29297h11.941c2.3438 0.03125 4.2344 1.9258 4.2617 4.2695-0.015625 2.3633-1.9023 4.2852-4.2617 4.3516h-17c-0.45312 0.10156-0.77734 0.50781-0.77734 0.97266 0 0.46875 0.32422 0.87109 0.77734 0.97656h17.922c3.418 0 6.7539-1.0469 9.5586-3l7.4219-5.1094h-0.003906c0.43359-0.31641 0.53906-0.91797 0.24219-1.3594-0.3125-0.42969-0.90625-0.53906-1.3516-0.25l-7.418 5.1484c-1.3594 0.92578-2.8594 1.6211-4.4414 2.0586z"/>
</svg>